<svg width="100" height="45" viewBox="0 0 150 150" fill="none" xmlns="http://www.w3.org/2000/svg">
<path d="M32.3045 115.537L30.1362 106.173L51.0925 107.979L50.1515 122.966L32.3045 115.537ZM37.3258 43L8 66.2206L12.5354 101.211H18.5172L17.4841 76.1811L18.4019 75.7044L21.9987 101.211H28.2132L27.9832 70.7222L28.9013 70.245L32.0446 101.211H38.6244L40.1765 64.3833L41.0939 63.9056L42.7223 101.211H51.4229L54.4854 49.9983L37.3258 43ZM127.892 119.174L127.832 116.254L133.852 116.136L133.908 112.954L127.76 112.826L127.699 109.871L135.798 109.552L135.864 106.062H124.939L124.613 123H136.066L135.985 119.503L127.892 119.174ZM73.4146 112.946L73.286 116.116L76.3246 116.286L76.2862 119.503L69.9262 119.19L70.2033 109.898L78.948 109.559L78.8217 106.062H67.5262L66.5134 123H79.3832L79.0497 112.782L73.4146 112.946ZM153.132 114.257L144.785 111.892L144.821 110.058L152.807 109.559L152.605 106.062H142.34L141.815 114.841L150.301 117.314L150.34 118.928L141.51 119.503L141.294 123H153.652L153.132 114.257ZM119.071 123L118.058 106.062H115.15L110.972 114.136L106.795 106.062H103.887L102.874 123H106.29L106.617 112.012L110.972 119.503L115.327 112.012L115.655 123H119.071ZM104.714 44.035H97.8772L97.2547 96.4156H105.515L104.714 44.035ZM125.899 85.0222L118.355 85.43L118.105 54.6244L125.995 55.0244L125.899 85.0222ZM132.51 44.0583H111.195L110.365 96.4156H134.024L132.51 44.0583ZM158 55.4983L157.239 44.035H136.237L136.415 54.2461L143.132 54.6361L143.82 96.4161H152.097L149.622 55.0122L158 55.4983ZM76.8075 54.7506L83.3959 54.3811L84.1466 64.8172L76.5424 70.8378L76.8075 54.7506ZM84.5046 96.4156H93.4766L87.6294 72.9067L92.2957 68.6333L89.1076 44.035H66.2038L65.4501 55.3867L70.5735 55.1L68.1029 96.4156H76.1215L76.3382 83.2456L82.1159 77.955L84.5046 96.4156ZM88.8683 115.366L89.563 109.824L92.8986 109.572L93.5956 115.133L88.8683 115.366ZM94.5823 123H98.0412L95.3045 106.061H87.1886L84.4522 123H87.9111L88.4467 118.727L94.0616 118.848L94.5823 123Z" fill="#D22A36"/>
</svg>
